<svg width="55" height="78" viewBox="0 0 55 78" fill="none" xmlns="http://www.w3.org/2000/svg">
<path d="M18.1152 31.4688H26.3447C32.8662 31.4688 36.127 28.277 36.127 21.8936C36.127 19.4092 35.3506 17.3906 33.7979 15.8379C32.2451 14.2507 30.054 13.457 27.2246 13.457C24.9128 13.457 22.8942 14.1299 21.1689 15.4756C19.4782 16.8213 18.6328 18.4948 18.6328 20.4961H1.19043C1.19043 16.528 2.2946 12.9912 4.50293 9.88574C6.71126 6.78027 9.76497 4.36491 13.6641 2.63965C17.5977 0.879883 21.9108 0 26.6035 0C34.9883 0 41.5788 1.91504 46.375 5.74512C51.1712 9.5752 53.5693 14.8372 53.5693 21.5312C53.5693 24.7747 52.5687 27.8457 50.5674 30.7441C48.6006 33.6081 45.7194 35.9372 41.9238 37.7314C45.9264 39.1807 49.0664 41.389 51.3438 44.3564C53.6211 47.2894 54.7598 50.9297 54.7598 55.2773C54.7598 62.0059 52.1719 67.3887 46.9961 71.4258C41.8203 75.4629 35.0228 77.4814 26.6035 77.4814C21.6693 77.4814 17.0801 76.5498 12.8359 74.6865C8.6263 72.7887 5.43457 70.1836 3.26074 66.8711C1.08691 63.5241 0 59.7285 0 55.4844H17.5459C17.5459 57.7962 18.4775 59.7975 20.3408 61.4883C22.2041 63.179 24.4987 64.0244 27.2246 64.0244C30.2956 64.0244 32.7454 63.179 34.5742 61.4883C36.403 59.763 37.3174 57.5719 37.3174 54.915C37.3174 51.1195 36.3685 48.4281 34.4707 46.8408C32.5729 45.2536 29.9505 44.46 26.6035 44.46H18.1152V31.4688Z" fill="#3F3F3F"/>
</svg>
