<svg width="55" height="77" viewBox="0 0 55 77" fill="none" xmlns="http://www.w3.org/2000/svg">
<path d="M54.1387 76.4463H1.55273V65.0596L25.7754 39.5947C31.7448 32.7972 34.7295 27.3971 34.7295 23.3945C34.7295 20.151 34.0221 17.6839 32.6074 15.9932C31.1927 14.3024 29.1396 13.457 26.4482 13.457C23.7913 13.457 21.6348 14.5957 19.9785 16.873C18.3223 19.1159 17.4941 21.9281 17.4941 25.3096H0C0 20.6859 1.15592 16.4245 3.46777 12.5254C5.77962 8.5918 8.98861 5.52083 13.0947 3.3125C17.2008 1.10417 21.79 0 26.8623 0C35.0055 0 41.2682 1.88053 45.6504 5.6416C50.0671 9.40267 52.2754 14.8027 52.2754 21.8418C52.2754 24.8092 51.7233 27.7077 50.6191 30.5371C49.515 33.332 47.7897 36.2822 45.4434 39.3877C43.1315 42.4587 39.3877 46.582 34.2119 51.7578L24.4814 62.9893H54.1387V76.4463Z" fill="#3F3F3F"/>
</svg>
